<svg width="186" height="55" viewBox="0 0 186 55" fill="none" xmlns="http://www.w3.org/2000/svg">
<path d="M0.953125 32.8398C0.953125 32.418 1.05859 32.1016 1.26953 31.8906C1.50391 31.6797 1.77344 31.5273 2.07812 31.4336C2.40625 31.3164 2.73438 31.2344 3.0625 31.1875C3.41406 31.1406 3.71875 31.0703 3.97656 30.9766C4.72656 29.9922 5.21875 28.8672 5.45312 27.6016C5.6875 26.3359 5.80469 25.0469 5.80469 23.7344C5.80469 22.8672 5.78125 22.0234 5.73438 21.2031C5.71094 20.3828 5.69922 19.5977 5.69922 18.8477V18.1094C5.69922 18.0156 5.71094 17.793 5.73438 17.4414C5.75781 17.0664 5.78125 16.6797 5.80469 16.2812C5.85156 15.8594 5.88672 15.4727 5.91016 15.1211C5.95703 14.7461 5.98047 14.5117 5.98047 14.418C5.98047 14.3477 5.95703 14.1953 5.91016 13.9609C5.88672 13.7266 5.85156 13.4805 5.80469 13.2227C5.78125 12.9648 5.75781 12.7188 5.73438 12.4844C5.71094 12.25 5.69922 12.0977 5.69922 12.0273C5.67578 11.8633 5.65234 11.5469 5.62891 11.0781C5.60547 10.5859 5.57031 10.0703 5.52344 9.53125C5.5 8.96875 5.46484 8.45312 5.41797 7.98438C5.37109 7.49219 5.33594 7.14062 5.3125 6.92969C5.05469 6.48438 4.71484 6.10938 4.29297 5.80469C3.89453 5.47656 3.49609 5.17188 3.09766 4.89062C2.69922 4.60938 2.34766 4.32812 2.04297 4.04688C1.76172 3.74219 1.62109 3.39062 1.62109 2.99219V2.57031C1.62109 2.40625 1.63281 2.26562 1.65625 2.14844C1.70312 2.00781 1.80859 1.92578 1.97266 1.90234C2.60547 1.69141 3.29688 1.51562 4.04688 1.375C4.79688 1.23438 5.55859 1.12891 6.33203 1.05859C7.10547 0.964844 7.85547 0.90625 8.58203 0.882812C9.33203 0.859375 10.0234 0.847656 10.6562 0.847656H11.3945C11.4883 0.894531 11.6758 0.976562 11.957 1.09375C12.2383 1.1875 12.4023 1.23438 12.4492 1.23438H14.4531C14.5 1.23438 14.5938 1.24609 14.7344 1.26953C14.8984 1.29297 15.0625 1.32812 15.2266 1.375C15.4141 1.39844 15.5898 1.43359 15.7539 1.48047C15.918 1.52734 16.0469 1.5625 16.1406 1.58594C17.4297 1.89062 18.7539 2.18359 20.1133 2.46484C21.4961 2.74609 22.7852 3.22656 23.9805 3.90625C24.0742 4.02344 24.2266 4.24609 24.4375 4.57422C24.6719 4.87891 24.918 5.21875 25.1758 5.59375C25.4336 5.94531 25.668 6.28516 25.8789 6.61328C26.1133 6.94141 26.2773 7.17578 26.3711 7.31641C26.3945 7.36328 26.4414 7.48047 26.5117 7.66797C26.6055 7.83203 26.6523 7.9375 26.6523 7.98438C26.6758 8.05469 26.7109 8.25391 26.7578 8.58203C26.8281 8.88672 26.8984 9.23828 26.9688 9.63672C27.0391 10.0117 27.0977 10.3984 27.1445 10.7969C27.2148 11.1719 27.2617 11.4648 27.2852 11.6758C27.2852 11.6992 27.2969 11.7227 27.3203 11.7461C27.3672 11.793 27.3906 11.8516 27.3906 11.9219C27.3906 12.2031 27.3086 12.5898 27.1445 13.082C27.0039 13.5508 26.8164 14.0312 26.582 14.5234C26.3711 15.0156 26.125 15.4727 25.8438 15.8945C25.5625 16.3164 25.293 16.6094 25.0352 16.7734C24.9648 16.8203 24.8008 16.9141 24.543 17.0547C24.3086 17.1953 24.0508 17.3359 23.7695 17.4766C23.5117 17.6172 23.2656 17.7578 23.0312 17.8984C22.8203 18.0156 22.6914 18.0859 22.6445 18.1094C22.5977 18.1328 22.5039 18.1914 22.3633 18.2852C22.2227 18.3789 22.0703 18.4844 21.9062 18.6016C21.7656 18.7188 21.625 18.8242 21.4844 18.918C21.3438 19.0117 21.25 19.0703 21.2031 19.0938C21.1797 19.1172 21.1211 19.1523 21.0273 19.1992C20.9336 19.2227 20.8281 19.2578 20.7109 19.3047C20.6172 19.3516 20.5234 19.3984 20.4297 19.4453C20.3359 19.4688 20.2891 19.4805 20.2891 19.4805C20.1953 19.5039 20.0664 19.5625 19.9023 19.6562C19.7383 19.7266 19.6445 19.7852 19.6211 19.832H17.7227C17.2305 19.832 16.7969 19.832 16.4219 19.832C16.0469 19.832 15.6719 19.8203 15.2969 19.7969C14.9219 19.7734 14.5352 19.7383 14.1367 19.6914C13.7383 19.6445 13.2695 19.5742 12.7305 19.4805C12.543 19.5508 12.3906 19.6328 12.2734 19.7266C11.9688 19.8906 11.8164 20.0312 11.8164 20.1484V25.9141C12.0039 26.2188 12.1094 26.4883 12.1328 26.7227C12.1797 26.957 12.2031 27.2383 12.2031 27.5664C12.2031 27.9648 12.1328 28.3398 11.9922 28.6914C11.875 29.043 11.8164 29.418 11.8164 29.8164V29.9219C11.8867 30.0391 12.0391 30.2266 12.2734 30.4844C12.5312 30.7422 12.6836 30.9062 12.7305 30.9766C13.0117 30.9766 13.3398 30.9531 13.7148 30.9062C14.1133 30.8594 14.5117 30.8359 14.9102 30.8359C15.5195 30.8359 16.0586 30.9297 16.5273 31.1172C16.9961 31.3047 17.2305 31.7148 17.2305 32.3477C17.2305 32.6758 17.1016 33.0391 16.8438 33.4375C16.6094 33.8125 16.293 34 15.8945 34H2.95703C2.86328 34 2.69922 33.9766 2.46484 33.9297C2.25391 33.8594 2.03125 33.7773 1.79688 33.6836C1.58594 33.5664 1.38672 33.4375 1.19922 33.2969C1.03516 33.1562 0.953125 33.0039 0.953125 32.8398ZM11.8164 17.0898C11.8633 17.1602 11.957 17.2773 12.0977 17.4414C12.2617 17.6055 12.3789 17.7109 12.4492 17.7578H12.625H12.7305C12.7773 17.7578 12.8711 17.7461 13.0117 17.7227C13.1523 17.6758 13.3047 17.6406 13.4688 17.6172C13.6328 17.5703 13.7852 17.5352 13.9258 17.5117C14.0664 17.4648 14.1602 17.4414 14.207 17.4414H14.8047H16.8086H17.2305C17.3008 17.4414 17.4297 17.3828 17.6172 17.2656C17.8047 17.1484 18.0039 17.0195 18.2148 16.8789C18.4258 16.7383 18.625 16.5977 18.8125 16.457C19.0234 16.293 19.1641 16.1641 19.2344 16.0703C19.2578 16.0469 19.2812 15.9766 19.3047 15.8594C19.3281 15.7188 19.3516 15.5781 19.375 15.4375C19.4219 15.2734 19.457 15.1211 19.4805 14.9805C19.5273 14.8398 19.5742 14.7578 19.6211 14.7344C19.668 14.5234 19.7383 14.3359 19.832 14.1719C19.9492 14.0078 20.0664 13.8555 20.1836 13.7148C20.3008 13.5508 20.4062 13.3867 20.5 13.2227C20.5938 13.0352 20.6406 12.8242 20.6406 12.5898C20.6406 12.4961 20.6172 12.3789 20.5703 12.2383C20.5469 12.168 20.5352 12.0977 20.5352 12.0273C20.5117 11.7461 20.4648 11.3828 20.3945 10.9375C20.3477 10.4688 20.2891 10 20.2188 9.53125C20.1484 9.0625 20.0781 8.65234 20.0078 8.30078C19.9375 7.94922 19.8906 7.73828 19.8672 7.66797C19.75 7.17578 19.5508 6.75391 19.2695 6.40234C19.0117 6.02734 18.6953 5.71094 18.3203 5.45312C17.9688 5.17188 17.582 4.9375 17.1602 4.75C16.7383 4.5625 16.3164 4.39844 15.8945 4.25781H15.6484C15.1328 4.25781 14.5469 4.30469 13.8906 4.39844C13.2578 4.46875 12.6484 4.64453 12.0625 4.92578C12.1094 5.23047 12.1328 5.52344 12.1328 5.80469C12.1328 6.08594 12.1328 6.37891 12.1328 6.68359C12.1328 8.06641 12.0742 9.4375 11.957 10.7969C11.8633 12.1328 11.8164 13.5273 11.8164 14.9805V17.0898ZM48.3789 29.3945C48.3555 29.3711 48.3203 29.3008 48.2734 29.1836C48.2266 29.043 48.1797 28.9023 48.1328 28.7617C48.0859 28.6211 48.0391 28.4922 47.9922 28.375C47.9688 28.2578 47.957 28.1875 47.957 28.1641C47.9102 28.0938 47.8867 28 47.8867 27.8828C47.8867 27.7422 47.8867 27.5898 47.8867 27.4258C47.8867 27.2852 47.8867 27.1445 47.8867 27.0039C47.8867 26.8633 47.9102 26.7578 47.957 26.6875C47.6289 26.3828 47.4297 26.1133 47.3594 25.8789C47.3125 25.6211 47.2891 25.3281 47.2891 25V24.2617C47.2891 24.2148 47.2656 24.1445 47.2188 24.0508C47.1719 23.957 47.1367 23.8867 47.1133 23.8398C47.043 23.793 46.9023 23.6641 46.6914 23.4531C46.5039 23.2422 46.3516 23.1133 46.2344 23.0664C46.0469 22.9023 45.8125 22.7969 45.5312 22.75C45.25 22.7031 45.0039 22.5977 44.793 22.4336C44.7461 22.4336 44.6289 22.4336 44.4414 22.4336C44.2773 22.4336 44.1719 22.4219 44.125 22.3984C43.9609 22.4453 43.7617 22.5273 43.5273 22.6445C43.3164 22.7383 43.1875 22.8086 43.1406 22.8555L42.7891 23.0664L41.0664 22.8555H40.2227C39.918 22.8555 39.6016 22.9141 39.2734 23.0312C38.9453 23.1484 38.6172 23.3008 38.2891 23.4883C37.9844 23.6758 37.6914 23.8984 37.4102 24.1562C37.1523 24.3906 36.9414 24.6367 36.7773 24.8945C36.7305 24.9414 36.6836 25.082 36.6367 25.3164C36.5898 25.5508 36.5664 25.6914 36.5664 25.7383C36.5195 25.8789 36.4492 26.0312 36.3555 26.1953C36.2617 26.3359 36.2148 26.5 36.2148 26.6875L36.1445 27.5664L35.8984 28.4805L36.2148 30.0977C36.2148 30.1445 36.25 30.2031 36.3203 30.2734C36.3906 30.3438 36.4727 30.4258 36.5664 30.5195C36.8242 30.7773 36.9531 30.9297 36.9531 30.9766C36.9531 31 36.9883 31.0234 37.0586 31.0469C37.1523 31.0703 37.2461 31.0938 37.3398 31.1172C37.4336 31.1406 37.5273 31.1641 37.6211 31.1875C37.7148 31.1875 37.7734 31.1875 37.7969 31.1875C37.9375 31.1875 38.125 31.1992 38.3594 31.2227C38.5938 31.2461 38.8164 31.3047 39.0273 31.3984C39.2617 31.4922 39.4609 31.6211 39.625 31.7852C39.7891 31.9258 39.8711 32.1367 39.8711 32.418C39.8711 32.6992 39.7656 32.9688 39.5547 33.2266C39.3438 33.4844 39.0859 33.6602 38.7812 33.7539C38.6641 33.7773 38.4766 33.8125 38.2188 33.8594C37.9609 33.9062 37.6797 33.9648 37.375 34.0352C37.0703 34.1055 36.7773 34.1641 36.4961 34.2109C36.2148 34.2812 36.0156 34.3281 35.8984 34.3516L35.0547 34L29.957 34.3516C29.6523 34.3047 29.3828 34.2578 29.1484 34.2109C28.9375 34.1641 28.7383 34.0938 28.5508 34C28.3867 33.9062 28.2344 33.7773 28.0938 33.6133C27.9766 33.4492 27.8477 33.2148 27.707 32.9102C27.707 32.4883 27.8242 32.1484 28.0586 31.8906C28.3164 31.6094 28.6211 31.375 28.9727 31.1875C29.3242 31 29.6875 30.8359 30.0625 30.6953C30.4375 30.5312 30.7422 30.3789 30.9766 30.2383C30.9766 30.1914 31 30.1562 31.0469 30.1328C31.1172 30.0859 31.1758 30.0391 31.2227 29.9922C31.4336 29.7812 31.6562 29.5352 31.8906 29.2539C32.1484 28.9727 32.3359 28.668 32.4531 28.3398C32.4766 28.3164 32.5117 28.2461 32.5586 28.1289C32.6055 28.0117 32.6523 27.8828 32.6992 27.7422C32.7461 27.6016 32.7812 27.4727 32.8047 27.3555C32.8516 27.2383 32.875 27.168 32.875 27.1445C33.1328 26.4648 33.4375 25.8555 33.7891 25.3164C34.1406 24.7539 34.4453 24.2031 34.7031 23.6641C34.7266 23.6406 34.7617 23.5703 34.8086 23.4531C34.8555 23.3359 34.9023 23.207 34.9492 23.0664C34.9961 22.9258 35.0312 22.7969 35.0547 22.6797C35.1016 22.5625 35.125 22.4805 35.125 22.4336L35.7227 19.9375C35.7461 19.9141 35.7812 19.8555 35.8281 19.7617C35.875 19.6445 35.9219 19.5273 35.9688 19.4102C36.0156 19.293 36.0508 19.1875 36.0742 19.0938C36.1211 19 36.1445 18.9414 36.1445 18.918L36.7773 16.8438C36.918 16.3281 37.0938 15.9062 37.3047 15.5781C37.5391 15.2266 37.7617 14.8164 37.9727 14.3477L38.1484 13.3281C38.1953 13.2344 38.2422 13.082 38.2891 12.8711C38.3359 12.6367 38.3711 12.5078 38.3945 12.4844L38.7812 11.2539C38.7812 11.1602 38.793 11.0312 38.8164 10.8672C38.8633 10.7031 38.8984 10.5273 38.9219 10.3398C38.9453 10.1523 38.9688 9.97656 38.9922 9.8125C39.0156 9.625 39.0273 9.49609 39.0273 9.42578V6.75391C39.0273 6.68359 39.0508 6.57812 39.0977 6.4375C39.168 6.29688 39.2383 6.15625 39.3086 6.01562C39.3789 5.85156 39.4609 5.71094 39.5547 5.59375C39.6484 5.45312 39.7539 5.34766 39.8711 5.27734L41.0664 4.85547C41.1367 4.85547 41.2422 4.77344 41.3828 4.60938C41.5469 4.42188 41.6523 4.30469 41.6992 4.25781L42.8945 3.69531L43.8086 2.81641C44.207 2.81641 44.5352 2.98047 44.793 3.30859C45.0742 3.61328 45.2969 3.92969 45.4609 4.25781C45.4844 4.375 45.5312 4.5625 45.6016 4.82031C45.6953 5.07812 45.7773 5.35938 45.8477 5.66406C45.9414 5.94531 46.0234 6.21484 46.0938 6.47266C46.1875 6.73047 46.2344 6.90625 46.2344 7V8.01953C46.2812 8.06641 46.3281 8.13672 46.375 8.23047C46.4219 8.32422 46.457 8.39453 46.4805 8.44141C46.8086 8.98047 47.0898 9.58984 47.3242 10.2695C47.5586 10.9258 47.7695 11.5938 47.957 12.2734C48.0039 12.7422 48.0273 13.0117 48.0273 13.082C48.0508 13.1523 48.0859 13.1875 48.1328 13.1875C48.3438 13.1875 48.4961 13.293 48.5898 13.5039C48.707 13.6914 48.8242 13.9141 48.9414 14.1719L49.3633 15.332C49.3633 15.4023 49.3984 15.5195 49.4688 15.6836C49.5391 15.8242 49.6211 15.9883 49.7148 16.1758C49.8086 16.3633 49.8906 16.5508 49.9609 16.7383C50.0547 16.9023 50.1133 17.0195 50.1367 17.0898C50.1602 17.1133 50.2422 17.2188 50.3828 17.4062C50.4531 17.5 50.5117 17.582 50.5586 17.6523C50.582 17.6992 50.6289 17.8281 50.6992 18.0391C50.7695 18.2266 50.8398 18.4375 50.9102 18.6719C50.9805 18.9062 51.0391 19.1289 51.0859 19.3398C51.1562 19.5273 51.1914 19.6445 51.1914 19.6914C51.3086 20.1602 51.4375 20.6406 51.5781 21.1328C51.7422 21.6016 51.9531 22.0352 52.2109 22.4336C52.2109 22.5039 52.3047 22.6562 52.4922 22.8906C52.6797 23.1016 52.7852 23.2422 52.8086 23.3125L53.0195 24.2617C53.1133 24.6602 53.207 24.9883 53.3008 25.2461C53.3945 25.5039 53.4531 25.7617 53.4766 26.0195C53.4766 26.0898 53.5 26.2305 53.5469 26.4414C53.6172 26.6523 53.6875 26.8867 53.7578 27.1445C53.8281 27.3789 53.8867 27.6016 53.9336 27.8125C54.0039 28 54.0391 28.1172 54.0391 28.1641C54.0859 28.4219 54.2031 28.7031 54.3906 29.0078C54.5781 29.3125 54.7656 29.5 54.9531 29.5703C54.9766 29.5938 55.0586 29.6406 55.1992 29.7109C55.3633 29.7812 55.5273 29.8633 55.6914 29.957C55.8789 30.0273 56.043 30.0977 56.1836 30.168C56.3477 30.2383 56.4414 30.2734 56.4648 30.2734C56.7461 30.4609 57.0039 30.6016 57.2383 30.6953C57.4961 30.7656 57.707 30.8594 57.8711 30.9766C58.0352 31.0703 58.1641 31.2109 58.2578 31.3984C58.3516 31.5859 58.3984 31.8672 58.3984 32.2422C58.3984 32.5938 58.2109 32.8984 57.8359 33.1562C57.4609 33.3906 57.0156 33.5898 56.5 33.7539C56.0078 33.8945 55.5039 34 54.9883 34.0703C54.4961 34.1406 54.1328 34.1758 53.8984 34.1758C53.2891 34.1758 52.7266 34.0938 52.2109 33.9297C51.7188 33.7656 51.1328 33.6836 50.4531 33.6836L47.7109 34C47.4766 34 47.1836 33.9883 46.832 33.9648C46.4805 33.918 46.1289 33.8477 45.7773 33.7539C45.4492 33.6367 45.1562 33.4844 44.8984 33.2969C44.6641 33.1094 44.5469 32.8516 44.5469 32.5234C44.5469 32.0781 44.7461 31.7734 45.1445 31.6094C45.543 31.4219 45.9766 31.2578 46.4453 31.1172C46.9375 30.9766 47.3828 30.8125 47.7812 30.625C48.1797 30.4141 48.3789 30.0625 48.3789 29.5703V29.3945ZM41.6992 20.3242C41.7227 20.3242 41.8047 20.3477 41.9453 20.3945C42.1094 20.418 42.2852 20.4531 42.4727 20.5C42.6836 20.5469 42.8828 20.5938 43.0703 20.6406C43.2812 20.6875 43.4453 20.7227 43.5625 20.7461L44.3711 20.9219C44.3945 20.8984 44.4883 20.875 44.6523 20.8516C44.8164 20.8281 44.9922 20.793 45.1797 20.7461L45.8828 20.6055L45.2148 17.9336C45.168 17.7227 45.1211 17.4414 45.0742 17.0898C45.0508 16.7148 45.0391 16.4688 45.0391 16.3516C45.0391 16.0469 45.0039 15.7891 44.9336 15.5781C44.8867 15.3438 44.8164 15.1211 44.7227 14.9102C44.6289 14.6992 44.5234 14.4883 44.4062 14.2773C44.2891 14.043 44.1719 13.7852 44.0547 13.5039C44.0078 13.3398 43.8438 13.1523 43.5625 12.9414C43.3047 12.7305 43.082 12.5312 42.8945 12.3438C42.8242 12.2734 42.707 12.2383 42.543 12.2383C42.332 12.2383 42.1211 12.3203 41.9102 12.4844C41.6992 12.6484 41.4648 12.7305 41.207 12.7305C40.9961 12.7305 40.7734 12.9062 40.5391 13.2578C40.3281 13.6094 40.1172 14.0195 39.9062 14.4883C39.7188 14.9336 39.5547 15.3906 39.4141 15.8594C39.2969 16.3047 39.2266 16.6328 39.2031 16.8438V19.5156C39.25 19.5859 39.3203 19.7266 39.4141 19.9375C39.5078 20.1484 39.5781 20.2773 39.625 20.3242C39.6719 20.3711 39.7188 20.4297 39.7656 20.5C39.8125 20.5469 39.8828 20.5703 39.9766 20.5703C40.0234 20.5703 40.1289 20.5586 40.293 20.5352C40.4805 20.5117 40.668 20.4883 40.8555 20.4648C41.043 20.418 41.2188 20.3828 41.3828 20.3594C41.5469 20.3359 41.6523 20.3242 41.6992 20.3242ZM55.9023 50.418C55.9023 50.2539 55.9141 50.0547 55.9375 49.8203C55.9375 49.6094 55.9375 49.4805 55.9375 49.4336C55.9609 49.4102 56.0312 49.3281 56.1484 49.1875C56.2422 49.0703 56.3477 48.9414 56.4648 48.8008C56.582 48.6602 56.6875 48.5195 56.7812 48.3789C56.875 48.2383 56.9453 48.1445 56.9922 48.0977C57.2969 47.6758 57.5781 47.3477 57.8359 47.1133C58.0938 46.8789 58.5391 46.7617 59.1719 46.7617C59.8516 46.7617 60.5195 46.8438 61.1758 47.0078C61.8555 47.1953 62.5 47.4414 63.1094 47.7461C63.1328 47.7695 63.1914 47.8164 63.2852 47.8867C63.3789 47.957 63.4727 48.0273 63.5664 48.0977C63.6836 48.1914 63.7891 48.2734 63.8828 48.3438C63.9766 48.4141 64.0234 48.4609 64.0234 48.4844H64.4102C64.668 48.4844 64.8906 48.4375 65.0781 48.3438C65.2656 48.25 65.4062 48.0508 65.5 47.7461L66.5898 41.3477V40.3281C66.5898 40.0938 66.5781 39.6953 66.5547 39.1328C66.5547 38.5703 66.543 37.9844 66.5195 37.375C66.5195 36.7656 66.5078 36.1914 66.4844 35.6523C66.4609 35.1367 66.4375 34.7852 66.4141 34.5977C66.4141 34.5273 66.4023 34.4102 66.3789 34.2461C66.3555 34.082 66.3203 33.9062 66.2734 33.7188C66.25 33.5312 66.2266 33.3672 66.2031 33.2266C66.1797 33.0625 66.168 32.957 66.168 32.9102C66.168 32.8633 66.1445 32.7695 66.0977 32.6289C66.0742 32.4648 66.0625 32.3359 66.0625 32.2422C66.0625 32.1953 66.0625 32.1367 66.0625 32.0664C66.0625 31.9727 66.0742 31.8906 66.0977 31.8203C66.1211 31.7266 66.1445 31.6445 66.168 31.5742C66.168 31.5039 66.2031 31.3281 66.2734 31.0469C66.3672 30.7656 66.4141 30.5898 66.4141 30.5195C66.4609 30.4727 66.4844 30.3555 66.4844 30.168C66.4844 29.957 66.4844 29.7109 66.4844 29.4297C66.4844 29.1484 66.4727 28.8555 66.4492 28.5508C66.4492 28.2227 66.4492 27.918 66.4492 27.6367C66.4492 27.3555 66.4375 27.1094 66.4141 26.8984C66.4141 26.6641 66.4141 26.5117 66.4141 26.4414C66.4141 26.418 66.4258 26.3125 66.4492 26.125C66.4961 25.9375 66.543 25.7266 66.5898 25.4922C66.6367 25.2578 66.6836 25.0469 66.7305 24.8594C66.7773 24.6484 66.8125 24.5078 66.8359 24.4375V24.0859C66.8359 23.6875 66.7773 23.3242 66.6602 22.9961C66.543 22.6445 66.4141 22.3047 66.2734 21.9766C66.1562 21.6484 66.0391 21.3203 65.9219 20.9922C65.8047 20.6406 65.7461 20.2539 65.7461 19.832C65.7461 19.082 65.8164 18.3672 65.957 17.6875C66.0977 17.0078 66.168 16.3281 66.168 15.6484C66.168 14.4062 66.1211 13.2461 66.0273 12.168C65.957 11.0898 65.8633 9.89453 65.7461 8.58203C65.6992 8.51172 65.6289 8.38281 65.5352 8.19531C65.4648 7.98438 65.3711 7.77344 65.2539 7.5625C65.1602 7.35156 65.0547 7.15234 64.9375 6.96484C64.8438 6.77734 64.7617 6.64844 64.6914 6.57812C64.6445 6.39062 64.5625 6.28516 64.4453 6.26172C64.3516 6.21484 64.2109 6.19141 64.0234 6.19141C63.8359 6.19141 63.707 6.21484 63.6367 6.26172C63.5664 6.28516 63.4961 6.33203 63.4258 6.40234C63.3555 6.44922 63.25 6.49609 63.1094 6.54297C62.9922 6.56641 62.793 6.57812 62.5117 6.57812C61.8789 6.57812 61.3516 6.35547 60.9297 5.91016C60.5312 5.44141 60.332 4.89062 60.332 4.25781V3.83594C60.6367 3.34375 61.0234 2.93359 61.4922 2.60547C61.9609 2.27734 62.4648 2.11328 63.0039 2.11328H63.7422C63.8359 2.13672 64.082 2.17188 64.4805 2.21875C64.8789 2.24219 65.3008 2.27734 65.7461 2.32422C66.2148 2.37109 66.6367 2.41797 67.0117 2.46484C67.4102 2.48828 67.6562 2.5 67.75 2.5H75.9766C76.1406 2.57031 76.2812 2.65234 76.3984 2.74609C76.5156 2.81641 76.6211 2.89844 76.7148 2.99219C76.8086 3.0625 76.8555 3.12109 76.8555 3.16797C77.0664 3.51953 77.1719 3.90625 77.1719 4.32812C77.1719 4.70312 77.0664 5.10156 76.8555 5.52344C76.8086 5.66406 76.7031 5.79297 76.5391 5.91016C76.3984 6.02734 76.2344 6.13281 76.0469 6.22656C75.8828 6.32031 75.7188 6.40234 75.5547 6.47266C75.4141 6.51953 75.3203 6.55469 75.2734 6.57812H74.0078H73.5859C73.5391 6.57812 73.4688 6.625 73.375 6.71875C73.2812 6.78906 73.2109 6.83594 73.1641 6.85938C73.0469 7.14062 72.9531 7.44531 72.8828 7.77344C72.8125 8.10156 72.7539 8.42969 72.707 8.75781C72.6836 9.08594 72.6602 9.41406 72.6367 9.74219C72.6133 10.0469 72.5664 10.3281 72.4961 10.5859C72.4961 10.6094 72.4844 10.6797 72.4609 10.7969C72.4375 10.8906 72.4023 10.9961 72.3555 11.1133C72.332 11.2305 72.3086 11.3477 72.2852 11.4648C72.2617 11.5586 72.25 11.6055 72.25 11.6055C72.2266 11.6523 72.1914 11.793 72.1445 12.0273C72.1211 12.2383 72.0859 12.4844 72.0391 12.7656C71.9922 13.0469 71.9453 13.3398 71.8984 13.6445C71.875 13.9258 71.8516 14.1367 71.8281 14.2773V14.5234V14.6641C71.8516 14.6875 71.8984 14.7578 71.9688 14.875C72.0391 14.9688 72.1094 15.0742 72.1797 15.1914C72.25 15.2852 72.3086 15.3906 72.3555 15.5078C72.4258 15.6016 72.4727 15.6602 72.4961 15.6836C72.4961 15.8711 72.4961 16.2109 72.4961 16.7031C72.5195 17.1719 72.5312 17.6758 72.5312 18.2148C72.5547 18.7539 72.5664 19.2695 72.5664 19.7617C72.5898 20.2305 72.6016 20.5586 72.6016 20.7461C72.6016 21.6367 72.6016 22.4805 72.6016 23.2773C72.6016 24.0742 72.5898 24.8594 72.5664 25.6328C72.543 26.4062 72.5078 27.1914 72.4609 27.9883C72.4141 28.7852 72.3438 29.6289 72.25 30.5195L72.918 31.5742V32.9102V34.9141C72.918 34.9844 72.8945 35.1133 72.8477 35.3008C72.8008 35.5117 72.7539 35.7344 72.707 35.9688C72.6602 36.2031 72.6133 36.4141 72.5664 36.6016C72.5195 36.8125 72.4961 36.9414 72.4961 36.9883C72.4961 37.082 72.5078 37.3633 72.5312 37.832C72.5547 38.3008 72.5664 38.7461 72.5664 39.168C72.5664 39.3789 72.5664 39.5547 72.5664 39.6953C72.5664 39.8594 72.543 39.9648 72.4961 40.0117C72.4961 40.0586 72.4844 40.1523 72.4609 40.293C72.4375 40.457 72.4141 40.6211 72.3906 40.7852C72.3672 40.9727 72.3438 41.1484 72.3203 41.3125C72.2969 41.4766 72.2734 41.5938 72.25 41.6641C72.2031 41.7109 72.1211 41.8281 72.0039 42.0156C71.8867 42.2266 71.8281 42.3555 71.8281 42.4023C71.8281 42.4492 71.8398 42.6016 71.8633 42.8594C71.8867 43.1406 71.8984 43.3867 71.8984 43.5977C71.8984 43.8555 71.875 43.9961 71.8281 44.0195C71.7109 44.6992 71.5 45.332 71.1953 45.918C70.9141 46.5273 70.5859 47.1016 70.2109 47.6406C69.8359 48.1797 69.4375 48.707 69.0156 49.2227C68.5938 49.7383 68.1719 50.2539 67.75 50.7695C67.7031 50.8867 67.5977 51.0273 67.4336 51.1914C67.293 51.3555 67.1758 51.4609 67.082 51.5078C66.8945 51.6484 66.625 51.8359 66.2734 52.0703C65.9453 52.3281 65.6055 52.5742 65.2539 52.8086C64.9023 53.0664 64.5742 53.2891 64.2695 53.4766C63.9883 53.6875 63.8125 53.8047 63.7422 53.8281C63.4609 53.9922 63.1211 54.0859 62.7227 54.1094C62.3477 54.1562 61.9727 54.1797 61.5977 54.1797H61C60.3203 54.1797 59.6641 54.1328 59.0312 54.0391C58.4219 53.9688 57.8828 53.8047 57.4141 53.5469C56.9453 53.2891 56.582 52.9023 56.3242 52.3867C56.043 51.8945 55.9023 51.2383 55.9023 50.418ZM83.043 32.4883C83.043 31.9961 83.1602 31.6094 83.3945 31.3281C83.6289 31.0234 83.9102 30.7773 84.2383 30.5898C84.5898 30.4023 84.9648 30.2266 85.3633 30.0625C85.7617 29.875 86.125 29.6523 86.4531 29.3945C86.8047 29.1367 87.0977 28.7969 87.332 28.375C87.5664 27.9531 87.6836 27.3906 87.6836 26.6875C87.6836 26.5 87.6836 26.3242 87.6836 26.1602C87.6836 25.9727 87.6602 25.7852 87.6133 25.5977C87.543 25.1758 87.5078 24.7305 87.5078 24.2617C87.5078 23.8867 87.543 23.5 87.6133 23.1016C87.6602 22.9141 87.6836 22.75 87.6836 22.6094C87.6836 22.4453 87.6836 22.2695 87.6836 22.082C87.6836 21.8242 87.6719 21.5898 87.6484 21.3789C87.625 21.168 87.5898 20.9336 87.543 20.6758C87.5195 20.418 87.4961 20.1484 87.4727 19.8672C87.4492 19.5859 87.4375 19.3047 87.4375 19.0234C87.4375 18.7656 87.4492 18.5195 87.4727 18.2852C87.4961 18.0273 87.5195 17.7695 87.543 17.5117C87.5898 17.2539 87.6367 17.0078 87.6836 16.7734C87.7305 16.5156 87.7539 16.2578 87.7539 16C87.7539 15.5781 87.707 15.1562 87.6133 14.7344C87.543 14.2891 87.4609 13.8555 87.3672 13.4336C87.2734 13.082 87.1914 12.7188 87.1211 12.3438C87.0742 11.9453 87.0508 11.5586 87.0508 11.1836C87.0508 11.043 87.0625 10.9141 87.0859 10.7969C87.1094 10.6562 87.1445 10.5273 87.1914 10.4102C87.2617 10.1758 87.2969 9.92969 87.2969 9.67188C87.2969 9.64844 87.2852 9.63672 87.2617 9.63672C87.2617 9.61328 87.2617 9.57812 87.2617 9.53125V9.42578C87.2383 9.35547 87.1914 9.26172 87.1211 9.14453C87.0742 9.00391 87.0156 8.875 86.9453 8.75781C86.875 8.61719 86.8047 8.48828 86.7344 8.37109C86.6875 8.25391 86.6523 8.18359 86.6289 8.16016C86.5352 8.06641 86.3711 7.90234 86.1367 7.66797C85.9023 7.41016 85.6562 7.15234 85.3984 6.89453C85.1406 6.61328 84.8828 6.35547 84.625 6.12109C84.3906 5.88672 84.2266 5.73438 84.1328 5.66406C84.1094 5.61719 84.0625 5.54688 83.9922 5.45312C83.9453 5.35938 83.9219 5.28906 83.9219 5.24219C83.9219 4.77344 84.0977 4.33984 84.4492 3.94141C84.8008 3.54297 85.1641 3.28516 85.5391 3.16797C85.7031 3.09766 85.9141 3.01562 86.1719 2.92188C86.4531 2.82812 86.7227 2.74609 86.9805 2.67578C87.2617 2.58203 87.5078 2.5 87.7188 2.42969C87.9297 2.35938 88.0586 2.32422 88.1055 2.32422C88.1523 2.32422 88.2695 2.3125 88.457 2.28906C88.6445 2.26562 88.7852 2.25391 88.8789 2.25391C89.207 2.25391 89.5117 2.28906 89.793 2.35938C90.0977 2.42969 90.4023 2.5 90.707 2.57031C90.8945 2.59375 91.0938 2.62891 91.3047 2.67578C91.5156 2.72266 91.7266 2.74609 91.9375 2.74609C92.1484 2.74609 92.3359 2.73438 92.5 2.71094C92.6641 2.6875 92.8398 2.65234 93.0273 2.60547C93.1914 2.58203 93.3555 2.55859 93.5195 2.53516C93.6836 2.51172 93.8594 2.5 94.0469 2.5C94.4922 2.5 94.9023 2.57031 95.2773 2.71094C95.6523 2.85156 96.0391 2.92188 96.4375 2.92188C96.4609 2.92188 96.543 2.93359 96.6836 2.95703C96.8242 2.95703 96.9766 2.95703 97.1406 2.95703C97.3281 2.95703 97.5039 2.96875 97.668 2.99219C97.8555 2.99219 98.0078 2.99219 98.125 2.99219C99.25 2.99219 100.363 2.92188 101.465 2.78125C102.59 2.64062 103.715 2.54688 104.84 2.5C104.957 2.40625 105.051 2.35938 105.121 2.35938C105.215 2.33594 105.344 2.32422 105.508 2.32422C106.117 2.58203 106.574 2.92188 106.879 3.34375C107.184 3.76562 107.406 4.25781 107.547 4.82031C107.547 4.86719 107.547 4.96094 107.547 5.10156C107.57 5.24219 107.594 5.39453 107.617 5.55859C107.641 5.72266 107.664 5.875 107.688 6.01562C107.711 6.15625 107.734 6.23828 107.758 6.26172C107.758 6.28516 107.77 6.33203 107.793 6.40234C107.816 6.44922 107.84 6.57812 107.863 6.78906C107.887 6.97656 107.91 7.24609 107.934 7.59766C107.957 7.94922 107.98 8.41797 108.004 9.00391C108.004 9.30859 107.84 9.55469 107.512 9.74219C107.207 9.92969 106.926 10.0234 106.668 10.0234C106.41 10.0234 106.199 10 106.035 9.95312C105.871 9.90625 105.719 9.83594 105.578 9.74219C105.438 9.64844 105.297 9.54297 105.156 9.42578C105.016 9.28516 104.84 9.14453 104.629 9.00391C104.605 9.00391 104.535 8.98047 104.418 8.93359C104.324 8.86328 104.254 8.80469 104.207 8.75781C104.184 8.75781 104.078 8.74609 103.891 8.72266C103.703 8.67578 103.586 8.62891 103.539 8.58203C103.07 8.39453 102.695 8.13672 102.414 7.80859C102.156 7.45703 101.84 7.08203 101.465 6.68359C101.348 6.68359 101.16 6.68359 100.902 6.68359C100.668 6.66016 100.398 6.63672 100.094 6.61328C99.8125 6.58984 99.543 6.56641 99.2852 6.54297C99.0273 6.51953 98.8516 6.48438 98.7578 6.4375C98.7109 6.4375 98.5703 6.37891 98.3359 6.26172C98.1016 6.14453 97.9492 6.08594 97.8789 6.08594C97.8555 6.03906 97.7148 6.01562 97.457 6.01562C97.2227 6.01562 97.0469 6.01562 96.9297 6.01562C96.4609 6.01562 96.0625 6.09766 95.7344 6.26172C95.4062 6.42578 95.125 6.64844 94.8906 6.92969C94.6562 7.21094 94.457 7.53906 94.293 7.91406C94.1523 8.26562 94.0352 8.62891 93.9414 9.00391C93.9414 9.05078 93.9062 9.19141 93.8359 9.42578C93.7891 9.66016 93.7422 9.82422 93.6953 9.91797C93.6953 9.96484 93.707 10.0352 93.7305 10.1289C93.7773 10.1992 93.8477 10.457 93.9414 10.9023C93.9414 11.6289 93.8359 12.3555 93.625 13.082C93.4375 13.7852 93.3438 14.5117 93.3438 15.2617C93.3438 15.4727 93.4141 15.6367 93.5547 15.7539C93.6953 15.8711 93.8594 15.9531 94.0469 16C94.2578 16.0469 94.4688 16.082 94.6797 16.1055C94.9141 16.1055 95.1133 16.1055 95.2773 16.1055H96.0859C96.2031 16.1055 96.3555 16.0938 96.543 16.0703C96.7539 16.0469 96.9531 16.0234 97.1406 16C97.3281 15.9766 97.4922 15.9531 97.6328 15.9297C97.7969 15.9062 97.8789 15.8828 97.8789 15.8594C97.9023 15.8594 97.9727 15.8242 98.0898 15.7539C98.207 15.6602 98.3242 15.5664 98.4414 15.4727C98.582 15.3555 98.7227 15.2383 98.8633 15.1211C99.0039 15.0039 99.1094 14.9102 99.1797 14.8398C99.25 14.7695 99.332 14.6875 99.4258 14.5938C99.543 14.5 99.6484 14.4062 99.7422 14.3125C99.8594 14.1953 99.9531 14.0898 100.023 13.9961C100.117 13.9023 100.176 13.8438 100.199 13.8203C100.41 13.5391 100.516 13.2344 100.516 12.9062C100.539 12.5781 100.562 12.2852 100.586 12.0273C100.633 11.7461 100.738 11.5234 100.902 11.3594C101.066 11.1719 101.406 11.0781 101.922 11.0781C102.602 11.0781 103.082 11.2891 103.363 11.7109C103.645 12.1328 103.785 12.6719 103.785 13.3281C103.785 13.7266 103.738 14.043 103.645 14.2773C103.551 14.5117 103.445 14.7227 103.328 14.9102C103.234 15.0977 103.141 15.2969 103.047 15.5078C102.977 15.7188 102.941 15.9883 102.941 16.3164C102.941 16.6211 103 16.8789 103.117 17.0898C103.234 17.2773 103.316 17.5 103.363 17.7578L103.539 20.0781C103.562 20.1016 103.586 20.1719 103.609 20.2891C103.656 20.4062 103.703 20.5469 103.75 20.7109C103.797 20.8516 103.844 21.0039 103.891 21.168C103.938 21.3086 103.961 21.4258 103.961 21.5195C103.938 21.6367 103.914 21.7773 103.891 21.9414C103.891 22.1055 103.879 22.2695 103.855 22.4336C103.832 22.6211 103.809 22.8086 103.785 22.9961C103.762 23.0664 103.703 23.1602 103.609 23.2773C103.516 23.3711 103.398 23.4766 103.258 23.5938C103.141 23.6875 103.012 23.7812 102.871 23.875C102.73 23.9688 102.613 24.0156 102.52 24.0156C102.426 24.0156 102.309 24.0156 102.168 24.0156C102.027 23.9922 101.945 23.9336 101.922 23.8398C101.875 23.793 101.828 23.6523 101.781 23.418C101.734 23.1836 101.711 23.043 101.711 22.9961C101.594 22.7852 101.441 22.5273 101.254 22.2227C101.066 21.918 100.855 21.6016 100.621 21.2734C100.387 20.9219 100.129 20.582 99.8477 20.2539C99.5664 19.9258 99.2852 19.6445 99.0039 19.4102C98.7461 19.2227 98.4648 19.1172 98.1602 19.0938C97.8789 19.0469 97.6445 19.0234 97.457 19.0234L96.0859 19.4805C96.0391 19.4805 95.9219 19.4453 95.7344 19.375C95.5703 19.3047 95.4531 19.2695 95.3828 19.2695H95.2422C95.1953 19.2695 95.1602 19.2695 95.1367 19.2695C95.1133 19.2461 95.0781 19.2344 95.0312 19.2344C94.9141 19.2344 94.7617 19.3047 94.5742 19.4453C94.3867 19.5859 94.1992 19.7617 94.0117 19.9727C93.8477 20.1602 93.6953 20.3594 93.5547 20.5703C93.4141 20.7812 93.3438 20.957 93.3438 21.0977C93.3438 21.1445 93.332 21.2969 93.3086 21.5547C93.2852 21.7891 93.2734 21.9883 93.2734 22.1523C93.2734 22.1992 93.2734 22.2695 93.2734 22.3633C93.2734 22.457 93.2852 22.5508 93.3086 22.6445C93.3086 22.7383 93.3203 22.8555 93.3438 22.9961C93.3438 23.1836 93.3789 23.5234 93.4492 24.0156C93.5195 24.4844 93.6016 24.9883 93.6953 25.5273C93.7891 26.043 93.8711 26.5469 93.9414 27.0391C94.0352 27.5078 94.0938 27.8359 94.1172 28.0234C94.4453 28.375 94.6797 28.7031 94.8203 29.0078C94.9609 29.2891 95.0898 29.5469 95.207 29.7812C95.3477 30.0156 95.5352 30.2031 95.7695 30.3438C96.0273 30.4609 96.4258 30.5195 96.9648 30.5195C97.5508 30.5195 98.125 30.4609 98.6875 30.3438C99.2734 30.2266 99.8594 30.1445 100.445 30.0977H101.289C101.336 30.0977 101.465 30.0391 101.676 29.9219C101.91 29.8047 102.051 29.7227 102.098 29.6758L102.941 29.5C103.035 29.4531 103.152 29.418 103.293 29.3945C103.457 29.3477 103.539 29.3008 103.539 29.2539C103.609 29.207 103.785 29.0781 104.066 28.8672C104.348 28.6328 104.535 28.5039 104.629 28.4805C104.863 28.293 105.109 28.1875 105.367 28.1641C105.625 28.1172 105.848 28 106.035 27.8125C106.316 27.5781 106.586 27.3203 106.844 27.0391C107.125 26.7344 107.406 26.4531 107.688 26.1953C107.969 25.9375 108.273 25.7266 108.602 25.5625C108.953 25.3984 109.34 25.3164 109.762 25.3164H110.5C110.688 25.4336 110.805 25.5977 110.852 25.8086C110.898 26.0195 110.922 26.2305 110.922 26.4414C110.922 27.5195 110.629 28.5391 110.043 29.5C110.043 29.5234 109.996 29.5938 109.902 29.7109C109.832 29.8281 109.738 29.957 109.621 30.0977C109.527 30.2383 109.434 30.3789 109.34 30.5195C109.27 30.6367 109.223 30.7188 109.199 30.7656C109.176 30.7891 109.152 30.8594 109.129 30.9766C109.105 31.0938 109.082 31.2227 109.059 31.3633C109.059 31.5039 109.047 31.6445 109.023 31.7852C109 31.9023 108.977 31.9727 108.953 31.9961C108.953 32.043 108.93 32.1133 108.883 32.207C108.859 32.3008 108.824 32.3711 108.777 32.418C108.73 32.4883 108.637 32.5938 108.496 32.7344C108.379 32.875 108.238 33.0273 108.074 33.1914C107.91 33.332 107.758 33.4727 107.617 33.6133C107.477 33.7539 107.383 33.8477 107.336 33.8945H107.02C106.598 33.8945 106.176 33.9297 105.754 34C105.262 34.0703 104.77 34.1055 104.277 34.1055C103.785 34.1055 103.34 34.0352 102.941 33.8945C102.543 33.7305 102.051 33.6484 101.465 33.6484C101.348 33.6484 101.16 33.6602 100.902 33.6836C100.645 33.6836 100.492 33.6836 100.445 33.6836L98.793 33.9297C98.2773 34.0234 97.75 34.0703 97.2109 34.0703C96.6719 34.0938 96.1328 34.1055 95.5938 34.1055H93.0273C92.6523 34.1055 92.3242 34.0703 92.043 34C91.7617 33.9297 91.457 33.8945 91.1289 33.8945C90.8945 33.8945 90.6602 33.9648 90.4258 34.1055C90.2148 34.2461 90.0039 34.3164 89.793 34.3164L87.8594 33.8945C87.8359 33.8945 87.7422 33.918 87.5781 33.9648C87.4141 33.9883 87.2266 34.0234 87.0156 34.0703C86.8047 34.1172 86.582 34.1641 86.3477 34.2109C86.1133 34.2578 85.9258 34.293 85.7852 34.3164C85.5039 34.3164 85.1992 34.2812 84.8711 34.2109C84.5664 34.1406 84.2734 34.0352 83.9922 33.8945C83.7344 33.7305 83.5117 33.543 83.3242 33.332C83.1367 33.0977 83.043 32.8164 83.043 32.4883ZM139.012 33.8242C138.824 33.8242 138.648 33.8359 138.484 33.8594C138.344 33.8828 138.18 33.9062 137.992 33.9297C137.734 33.9766 137.488 34.0117 137.254 34.0352C137.02 34.0586 136.773 34.0703 136.516 34.0703L135.25 34C134.922 33.9062 134.676 33.7539 134.512 33.543C134.348 33.3086 134.23 33.0508 134.16 32.7695C134.09 32.4883 134.055 32.207 134.055 31.9258C134.055 31.6211 134.043 31.3398 134.02 31.082C133.996 30.9648 133.961 30.7539 133.914 30.4492C133.867 30.1445 133.82 29.8281 133.773 29.5C133.75 29.1719 133.715 28.8555 133.668 28.5508C133.645 28.2461 133.621 28.0352 133.598 27.918C133.387 27.6367 133.234 27.3672 133.141 27.1094C133.047 26.8281 132.918 26.5469 132.754 26.2656L132.086 25.5977C132.086 25.5742 132.062 25.457 132.016 25.2461C131.969 25.0117 131.934 24.8711 131.91 24.8242C131.816 24.5664 131.617 24.1914 131.312 23.6992C131.008 23.1836 130.656 22.6797 130.258 22.1875C129.883 21.6953 129.484 21.2734 129.062 20.9219C128.641 20.5469 128.266 20.3594 127.938 20.3594C127.867 20.4062 127.773 20.4648 127.656 20.5352C127.539 20.582 127.41 20.6406 127.27 20.7109C127.152 20.7812 127.035 20.8516 126.918 20.9219C126.801 20.9922 126.719 21.0391 126.672 21.0625C126.578 21.0859 126.484 21.1797 126.391 21.3438C126.297 21.4844 126.25 21.5898 126.25 21.6602C126.203 22.082 126.168 22.5156 126.145 22.9609C126.121 23.4062 126.109 23.8633 126.109 24.332L126.25 27.5664C126.25 27.5898 126.215 27.6836 126.145 27.8477C126.098 28.0117 126.074 28.1758 126.074 28.3398C126.074 28.3633 126.098 28.4453 126.145 28.5859C126.168 28.6562 126.203 28.7148 126.25 28.7617V29.6055C126.297 29.8633 126.379 30.0273 126.496 30.0977C126.637 30.1445 126.754 30.2734 126.848 30.4844L127.27 31.2578C127.293 31.3047 127.363 31.375 127.48 31.4688C127.598 31.5625 127.715 31.668 127.832 31.7852C127.973 31.9023 128.09 32.0195 128.184 32.1367C128.301 32.2305 128.359 32.2891 128.359 32.3125V32.7344C128.359 32.9219 128.301 33.0742 128.184 33.1914C128.09 33.2852 127.961 33.3672 127.797 33.4375C127.656 33.4844 127.492 33.543 127.305 33.6133C127.141 33.6602 126.988 33.7305 126.848 33.8242H123.93C123.812 33.9414 123.684 34.0117 123.543 34.0352C123.426 34.0586 123.297 34.0703 123.156 34.0703C122.758 34.0703 122.395 34.0234 122.066 33.9297C121.762 33.8125 121.387 33.7539 120.941 33.7539L117.777 34.0703C117.707 34.0703 117.613 34.0703 117.496 34.0703C117.402 34.0703 117.309 34.0586 117.215 34.0352C117.098 34.0352 116.98 34.0234 116.863 34C116.84 34 116.77 33.9766 116.652 33.9297C116.559 33.8828 116.441 33.8242 116.301 33.7539C116.184 33.6836 116.055 33.6133 115.914 33.543C115.773 33.4727 115.668 33.4258 115.598 33.4023C115.48 33.332 115.41 33.2734 115.387 33.2266C115.363 33.1562 115.352 33.0742 115.352 32.9805C115.352 32.7227 115.469 32.5234 115.703 32.3828C115.938 32.2422 116.207 32.125 116.512 32.0312C116.816 31.9375 117.121 31.8555 117.426 31.7852C117.73 31.7148 117.953 31.6211 118.094 31.5039C118.727 30.9883 119.254 30.3672 119.676 29.6406C120.098 28.9141 120.344 28.1406 120.414 27.3203V26.0898C120.414 25.9023 120.414 25.7148 120.414 25.5273C120.438 25.3398 120.496 25.1641 120.59 25C120.543 24.6016 120.52 24.2031 120.52 23.8047C120.52 23.4062 120.52 23.0078 120.52 22.6094C120.52 22.2109 120.52 21.8125 120.52 21.4141C120.52 20.9922 120.543 20.582 120.59 20.1836C120.637 20.1367 120.707 20.0078 120.801 19.7969C120.895 19.5625 120.965 19.3867 121.012 19.2695L120.766 18.0039L121.012 15.6836V14.3477C121.012 14.2539 121 14.0898 120.977 13.8555C120.977 13.6211 120.965 13.375 120.941 13.1172C120.918 12.8359 120.895 12.5781 120.871 12.3438C120.871 12.1094 120.859 11.9336 120.836 11.8164C120.789 11.7695 120.719 11.6758 120.625 11.5352C120.531 11.3711 120.461 11.2539 120.414 11.1836L120.168 10.7617V9.10938C120.051 8.94531 119.945 8.80469 119.852 8.6875C119.758 8.57031 119.664 8.46484 119.57 8.37109C119.477 8.25391 119.406 8.16016 119.359 8.08984C119.172 7.87891 118.891 7.66797 118.516 7.45703C118.164 7.24609 117.801 7.03516 117.426 6.82422C117.051 6.58984 116.723 6.34375 116.441 6.08594C116.16 5.82812 116.02 5.54688 116.02 5.24219C116.02 5.14844 116.078 5.06641 116.195 4.99609C116.312 4.90234 116.441 4.82031 116.582 4.75C116.746 4.67969 116.898 4.63281 117.039 4.60938C117.203 4.5625 117.332 4.52734 117.426 4.50391C117.801 4.45703 118.152 4.42188 118.48 4.39844C118.809 4.375 119.172 4.36328 119.57 4.36328H120.484C120.602 4.41016 120.719 4.43359 120.836 4.43359C120.953 4.43359 121.094 4.43359 121.258 4.43359C121.445 4.43359 121.609 4.43359 121.75 4.43359C121.914 4.41016 122.09 4.375 122.277 4.32812C123.332 4.53906 124.398 4.63281 125.477 4.60938C126.578 4.58594 127.691 4.63281 128.816 4.75C129.004 4.86719 129.133 5.05469 129.203 5.3125C129.273 5.54688 129.344 5.75781 129.414 5.94531C129.344 5.99219 129.25 6.07422 129.133 6.19141C129.016 6.30859 128.887 6.4375 128.746 6.57812C128.605 6.71875 128.477 6.84766 128.359 6.96484C128.242 7.08203 128.16 7.17578 128.113 7.24609L127.516 8.44141C127.469 8.48828 127.387 8.57031 127.27 8.6875C127.152 8.78125 127.094 8.85156 127.094 8.89844C127.07 8.94531 127.047 9.02734 127.023 9.14453C127 9.26172 126.977 9.39062 126.953 9.53125C126.953 9.67188 126.941 9.8125 126.918 9.95312C126.895 10.0703 126.871 10.1406 126.848 10.1641L126.074 11.0078C126.051 11.125 126.039 11.2305 126.039 11.3242C126.016 11.418 126.004 11.5234 126.004 11.6406C126.004 11.7578 126.004 11.875 126.004 11.9922C126.004 12.1328 126.016 12.2969 126.039 12.4844C126.062 12.6484 126.133 12.7891 126.25 12.9062L126.32 14.2773L126.25 15.6484C126.133 15.7422 126.062 15.8477 126.039 15.9648C126.016 16.082 126.004 16.1992 126.004 16.3164C126.004 16.6211 126.086 16.8672 126.25 17.0547C126.414 17.2188 126.555 17.4297 126.672 17.6875C126.719 17.7344 126.766 17.8398 126.812 18.0039C126.883 18.168 127 18.2734 127.164 18.3203C127.422 18.3203 127.609 18.2266 127.727 18.0391C127.867 17.8516 127.938 17.5938 127.938 17.2656C128.266 17.0781 128.512 16.8672 128.676 16.6328C128.84 16.375 128.969 16.1172 129.062 15.8594C129.18 15.5781 129.285 15.2969 129.379 15.0156C129.473 14.7109 129.602 14.4062 129.766 14.1016C129.812 14.0312 129.871 13.9375 129.941 13.8203C130.035 13.7031 130.117 13.5859 130.188 13.4688C130.281 13.3281 130.363 13.2109 130.434 13.1172C130.527 13 130.586 12.9297 130.609 12.9062L131.91 11.3594C131.934 11.3359 131.969 11.1836 132.016 10.9023C132.062 10.5977 132.086 10.4336 132.086 10.4102C132.18 10.1523 132.297 9.90625 132.438 9.67188C132.602 9.41406 132.707 9.15625 132.754 8.89844V7.42188C132.848 7.30469 133.035 7.17578 133.316 7.03516C133.598 6.89453 133.75 6.76562 133.773 6.64844V5.94531C133.844 5.71094 133.984 5.51172 134.195 5.34766C134.406 5.16016 134.641 5.00781 134.898 4.89062C135.18 4.75 135.461 4.65625 135.742 4.60938C136.047 4.53906 136.305 4.50391 136.516 4.50391C136.773 4.50391 137.008 4.51562 137.219 4.53906C137.43 4.5625 137.664 4.58594 137.922 4.60938C138.086 4.65625 138.25 4.69141 138.414 4.71484C138.578 4.73828 138.742 4.75 138.906 4.75H139.434C139.504 4.72656 139.621 4.66797 139.785 4.57422C139.949 4.48047 140.113 4.39844 140.277 4.32812C140.465 4.23438 140.629 4.15234 140.77 4.08203C140.91 3.98828 141.016 3.92969 141.086 3.90625H144.672C144.812 3.90625 145.012 3.92969 145.27 3.97656C145.527 4 145.785 4.04688 146.043 4.11719C146.301 4.1875 146.523 4.28125 146.711 4.39844C146.898 4.51562 146.992 4.65625 146.992 4.82031C146.992 4.96094 146.945 5.13672 146.852 5.34766C146.758 5.55859 146.641 5.76953 146.5 5.98047C146.383 6.16797 146.242 6.34375 146.078 6.50781C145.938 6.64844 145.809 6.75391 145.691 6.82422L144.672 7.07031C144.648 7.07031 144.566 7.09375 144.426 7.14062C144.309 7.16406 144.168 7.19922 144.004 7.24609C143.863 7.26953 143.711 7.30469 143.547 7.35156C143.406 7.375 143.301 7.39844 143.23 7.42188C142.973 7.51562 142.715 7.65625 142.457 7.84375C142.199 8.00781 141.965 8.08984 141.754 8.08984L140.77 7.84375C140.699 7.84375 140.5 7.89062 140.172 7.98438C139.844 8.05469 139.48 8.14844 139.082 8.26562C138.707 8.38281 138.344 8.5 137.992 8.61719C137.664 8.73438 137.453 8.82812 137.359 8.89844C137.312 8.92188 137.23 8.99219 137.113 9.10938C137.02 9.20312 136.914 9.30859 136.797 9.42578C136.68 9.54297 136.562 9.66016 136.445 9.77734C136.352 9.89453 136.293 9.96484 136.27 9.98828L135.672 10.4102C135.625 10.4102 135.484 10.4336 135.25 10.4805C135.016 10.5039 134.875 10.5391 134.828 10.5859C134.617 10.6797 134.418 10.8789 134.23 11.1836C134.066 11.4648 133.914 11.793 133.773 12.168C133.656 12.5195 133.551 12.8828 133.457 13.2578C133.387 13.6094 133.352 13.8906 133.352 14.1016C133.352 14.4297 133.363 14.7695 133.387 15.1211C133.434 15.4727 133.562 15.7891 133.773 16.0703L135.426 17.8984C135.426 17.9688 135.438 18.0859 135.461 18.25C135.484 18.4141 135.508 18.5898 135.531 18.7773C135.555 18.9414 135.578 19.1055 135.602 19.2695C135.625 19.4102 135.648 19.5156 135.672 19.5859L136.094 20.1836V21.2383C136.117 21.4961 136.223 21.7305 136.41 21.9414C136.621 22.1289 136.844 22.3047 137.078 22.4688C137.312 22.6094 137.547 22.75 137.781 22.8906C138.016 23.0312 138.203 23.1719 138.344 23.3125C138.391 23.3594 138.473 23.5117 138.59 23.7695C138.707 24.0039 138.766 24.1445 138.766 24.1914C138.812 24.2383 138.895 24.3438 139.012 24.5078C139.129 24.6719 139.188 24.7773 139.188 24.8242C139.211 24.8477 139.27 24.9414 139.363 25.1055C139.457 25.2695 139.551 25.4453 139.645 25.6328C139.738 25.8203 139.82 25.9961 139.891 26.1602C139.984 26.3242 140.043 26.418 140.066 26.4414C140.113 26.5586 140.23 26.6875 140.418 26.8281C140.605 26.9453 140.805 27.0625 141.016 27.1797C141.133 27.2734 141.25 27.3672 141.367 27.4609C141.484 27.5312 141.59 27.625 141.684 27.7422C141.754 27.7891 141.836 27.9062 141.93 28.0938C142.047 28.2578 142.129 28.3398 142.176 28.3398C142.223 28.4102 142.305 28.5156 142.422 28.6562C142.562 28.7969 142.715 28.9492 142.879 29.1133C143.043 29.2539 143.195 29.3945 143.336 29.5352C143.477 29.6758 143.582 29.7695 143.652 29.8164C143.816 30.0039 144.051 30.1562 144.355 30.2734C144.66 30.3672 144.977 30.4727 145.305 30.5898C145.633 30.6836 145.961 30.7891 146.289 30.9062C146.617 31 146.91 31.1172 147.168 31.2578C147.285 31.375 147.344 31.457 147.344 31.5039C147.438 31.6445 147.59 31.832 147.801 32.0664C148.035 32.3008 148.258 32.5469 148.469 32.8047C148.703 33.0391 148.902 33.2734 149.066 33.5078C149.23 33.7188 149.312 33.8828 149.312 34C149.312 34.3281 149.172 34.5508 148.891 34.668C148.609 34.7852 148.34 34.8438 148.082 34.8438C147.754 34.8438 147.449 34.7969 147.168 34.7031C146.91 34.6328 146.629 34.5977 146.324 34.5977C146.02 34.5977 145.691 34.6562 145.34 34.7734C145.176 34.8438 145 34.9023 144.812 34.9492C144.648 34.9961 144.379 35.0195 144.004 35.0195C143.98 35.0195 143.91 34.9961 143.793 34.9492C143.676 34.9258 143.547 34.8906 143.406 34.8438C143.266 34.7969 143.125 34.75 142.984 34.7031C142.867 34.6562 142.797 34.6211 142.773 34.5977C142.75 34.5977 142.668 34.5859 142.527 34.5625C142.387 34.5625 142.223 34.5508 142.035 34.5273C141.871 34.5273 141.719 34.5156 141.578 34.4922C141.438 34.4688 141.355 34.4453 141.332 34.4219C141.074 34.3516 140.863 34.2812 140.699 34.2109C140.559 34.1406 140.406 34.0703 140.242 34C140.102 33.9531 139.938 33.918 139.75 33.8945C139.562 33.8477 139.316 33.8242 139.012 33.8242ZM154.305 26.4062C154.305 26.2422 154.281 26.0312 154.234 25.7734C154.188 25.5156 154.152 25.3398 154.129 25.2461C154.082 25.1758 153.965 25.0703 153.777 24.9297C153.59 24.7656 153.484 24.6719 153.461 24.6484C153.344 24.4609 153.25 24.2383 153.18 23.9805C153.133 23.7227 153.086 23.5 153.039 23.3125C152.992 23.1484 152.91 22.9141 152.793 22.6094C152.699 22.2812 152.629 22.082 152.582 22.0117C152.582 21.9648 152.523 21.8594 152.406 21.6953C152.289 21.5078 152.207 21.3906 152.16 21.3438L151.984 20.9922C151.984 20.9219 152.008 20.7695 152.055 20.5352C152.125 20.3008 152.16 20.1719 152.16 20.1484C152.16 20.0312 152.172 19.7969 152.195 19.4453C152.219 19.0938 152.23 18.7188 152.23 18.3203C152.23 17.9219 152.219 17.5586 152.195 17.2305C152.172 16.8789 152.16 16.6328 152.16 16.4922L152.406 15.8242C152.406 15.8008 152.406 15.7188 152.406 15.5781C152.43 15.4141 152.453 15.25 152.477 15.0859C152.5 14.8984 152.523 14.7344 152.547 14.5938C152.57 14.4297 152.582 14.3242 152.582 14.2773C152.629 14.1836 152.758 14.0078 152.969 13.75C153.18 13.4922 153.344 13.3047 153.461 13.1875C153.461 13.1641 153.426 13.082 153.355 12.9414C153.285 12.7773 153.25 12.6602 153.25 12.5898C153.227 12.5898 153.215 12.5781 153.215 12.5547V12.4844L153.25 12.3438C153.438 12.0156 153.66 11.6523 153.918 11.2539C154.176 10.832 154.469 10.4922 154.797 10.2344C155.055 10 155.301 9.80078 155.535 9.63672C155.793 9.44922 156.027 9.21484 156.238 8.93359C156.449 8.67578 156.625 8.38281 156.766 8.05469C156.93 7.70312 157.117 7.375 157.328 7.07031C157.328 7.02344 157.352 6.97656 157.398 6.92969C157.445 6.88281 157.492 6.84766 157.539 6.82422C158.055 6.44922 158.582 6.05078 159.121 5.62891C159.66 5.18359 160.199 4.80859 160.738 4.50391C160.762 4.48047 160.832 4.43359 160.949 4.36328C161.09 4.29297 161.23 4.22266 161.371 4.15234C161.535 4.08203 161.676 4.02344 161.793 3.97656C161.91 3.90625 161.992 3.85938 162.039 3.83594L162.883 3.16797C162.953 3.14453 163.094 3.13281 163.305 3.13281C163.516 3.10938 163.738 3.08594 163.973 3.0625C164.207 3.03906 164.43 3.02734 164.641 3.02734C164.852 3.00391 164.992 2.99219 165.062 2.99219C165.086 2.96875 165.145 2.93359 165.238 2.88672C165.332 2.83984 165.438 2.79297 165.555 2.74609C165.672 2.69922 165.777 2.66406 165.871 2.64062C165.988 2.59375 166.059 2.57031 166.082 2.57031C166.48 2.45312 166.926 2.34766 167.418 2.25391C167.934 2.13672 168.402 2.07812 168.824 2.07812C169.41 2.07812 169.984 2.19531 170.547 2.42969C171.133 2.64062 171.719 2.80469 172.305 2.92188C172.938 3.0625 173.57 3.20312 174.203 3.34375C174.836 3.46094 175.457 3.60156 176.066 3.76562C176.699 3.92969 177.309 4.14062 177.895 4.39844C178.48 4.63281 179.055 4.94922 179.617 5.34766C179.641 5.37109 179.699 5.44141 179.793 5.55859C179.887 5.65234 179.992 5.75781 180.109 5.875C180.227 5.99219 180.344 6.10938 180.461 6.22656C180.578 6.32031 180.66 6.37891 180.707 6.40234C180.73 6.42578 180.859 6.46094 181.094 6.50781C181.352 6.55469 181.504 6.57812 181.551 6.57812C181.645 6.64844 181.715 6.75391 181.762 6.89453C181.809 7.01172 181.844 7.15234 181.867 7.31641C181.914 7.45703 181.949 7.59766 181.973 7.73828C182.02 7.87891 182.078 7.99609 182.148 8.08984C182.172 8.11328 182.207 8.17188 182.254 8.26562C182.324 8.35938 182.395 8.45312 182.465 8.54688C182.559 8.64062 182.629 8.73438 182.676 8.82812C182.746 8.89844 182.793 8.93359 182.816 8.93359L182.992 10.0234C183.062 10.1406 183.203 10.3047 183.414 10.5156C183.648 10.7266 183.801 10.8555 183.871 10.9023V12.8359C183.871 13 183.918 13.1992 184.012 13.4336C184.129 13.668 184.246 13.9141 184.363 14.1719C184.48 14.4297 184.598 14.6875 184.715 14.9453C184.832 15.2031 184.914 15.4375 184.961 15.6484C185.031 16 185.078 16.3047 185.102 16.5625C185.125 16.8203 185.148 17.0781 185.172 17.3359C185.195 17.5703 185.207 17.8164 185.207 18.0742C185.207 18.332 185.207 18.6367 185.207 18.9883V20.3242C185.207 20.3711 185.172 20.5586 185.102 20.8867C185.031 21.1914 184.984 21.4258 184.961 21.5898C184.914 21.7305 184.867 21.9062 184.82 22.1172C184.773 22.3281 184.727 22.5391 184.68 22.75C184.656 22.9609 184.621 23.1484 184.574 23.3125C184.551 23.4531 184.539 23.5234 184.539 23.5234C184.492 23.5938 184.398 23.7344 184.258 23.9453C184.117 24.1562 183.953 24.3906 183.766 24.6484C183.602 24.8828 183.438 25.1055 183.273 25.3164C183.133 25.5039 183.039 25.6211 182.992 25.668C182.992 25.6914 182.945 25.7734 182.852 25.9141C182.781 26.0547 182.699 26.2188 182.605 26.4062C182.512 26.5703 182.418 26.7344 182.324 26.8984C182.23 27.0391 182.172 27.1328 182.148 27.1797C181.844 27.6016 181.492 28 181.094 28.375C180.719 28.7266 180.367 29.1016 180.039 29.5C179.828 29.7812 179.688 29.9805 179.617 30.0977C179.547 30.2148 179.395 30.3789 179.16 30.5898C178.832 30.8477 178.527 31.0469 178.246 31.1875C177.965 31.3281 177.684 31.5508 177.402 31.8555C177.402 31.9023 177.355 32.0195 177.262 32.207C177.168 32.3945 177.098 32.4883 177.051 32.4883C177.004 32.5117 176.922 32.5352 176.805 32.5586C176.688 32.582 176.547 32.6055 176.383 32.6289C176.242 32.6523 176.102 32.6758 175.961 32.6992C175.844 32.6992 175.762 32.7109 175.715 32.7344C175.574 32.8047 175.316 32.9219 174.941 33.0859C174.59 33.2266 174.203 33.3906 173.781 33.5781C173.383 33.7422 172.996 33.9062 172.621 34.0703C172.27 34.2578 172.023 34.3984 171.883 34.4922H169.809C167.746 34.4922 165.719 34.1289 163.727 33.4023L163.305 33.1562C163.258 33.0859 163.199 33.0156 163.129 32.9453C162.988 32.8047 162.906 32.7344 162.883 32.7344C162.859 32.7109 162.789 32.6875 162.672 32.6641C162.578 32.6406 162.473 32.6172 162.355 32.5938C162.238 32.5703 162.121 32.5469 162.004 32.5234C161.887 32.5 161.816 32.4883 161.793 32.4883C160.949 32.3008 160.188 31.9844 159.508 31.5391C158.852 31.0938 158.242 30.5898 157.68 30.0273C157.117 29.4648 156.566 28.8789 156.027 28.2695C155.488 27.6367 154.914 27.0508 154.305 26.5117V26.4062ZM162.461 28.4805C162.414 28.5508 162.391 28.6445 162.391 28.7617C162.391 28.9492 162.449 29.1133 162.566 29.2539C162.707 29.3945 162.859 29.5234 163.023 29.6406C163.188 29.7344 163.352 29.8281 163.516 29.9219C163.703 30.0156 163.855 30.0977 163.973 30.168C164.207 30.3555 164.441 30.5664 164.676 30.8008C164.934 31.0117 165.191 31.2227 165.449 31.4336C165.73 31.6211 166.012 31.7852 166.293 31.9258C166.574 32.043 166.891 32.1016 167.242 32.1016C167.5 32.1484 167.746 32.1836 167.98 32.207C168.215 32.2305 168.461 32.2422 168.719 32.2422C168.93 32.2422 169.129 32.2305 169.316 32.207C169.527 32.1836 169.727 32.1484 169.914 32.1016L170.582 31.8555L171.566 31.8203L172.551 31.8555C172.598 31.832 172.656 31.8086 172.727 31.7852C172.82 31.7617 172.902 31.7148 172.973 31.6445C173.043 31.5977 173.137 31.5508 173.254 31.5039C173.371 31.4336 173.488 31.3633 173.605 31.293C173.723 31.1992 173.852 31.1055 173.992 31.0117C174.039 30.9883 174.121 30.918 174.238 30.8008C174.379 30.6602 174.52 30.5195 174.66 30.3789C174.801 30.2383 174.93 30.1094 175.047 29.9922C175.164 29.8516 175.246 29.7695 175.293 29.7461L175.961 29.3242C176.125 29.1602 176.336 28.9375 176.594 28.6562C176.852 28.3516 177.098 28.0352 177.332 27.707C177.566 27.3555 177.766 27.0156 177.93 26.6875C178.117 26.3594 178.223 26.0781 178.246 25.8438C178.27 25.7734 178.293 25.668 178.316 25.5273C178.363 25.3867 178.398 25.2344 178.422 25.0703C178.445 24.9062 178.457 24.7656 178.457 24.6484C178.48 24.5078 178.492 24.4258 178.492 24.4023C178.633 23.0664 178.703 21.7656 178.703 20.5C178.703 19.4922 178.633 18.4961 178.492 17.5117C178.398 17.3711 178.34 17.2188 178.316 17.0547C178.316 16.8906 178.316 16.7148 178.316 16.5273V15.6836C178.316 15.4492 178.293 15.2734 178.246 15.1562C178.223 14.875 178.105 14.6289 177.895 14.418C177.684 14.1836 177.52 13.9375 177.402 13.6797C177.215 13.2578 177.062 12.8711 176.945 12.5195C176.852 12.1445 176.723 11.7461 176.559 11.3242C176.535 11.2773 176.512 11.2188 176.488 11.1484C176.465 11.0781 176.43 10.9961 176.383 10.9023L175.715 9.77734C175.715 9.75391 175.691 9.625 175.645 9.39062C175.598 9.15625 175.562 9.00391 175.539 8.93359C175.047 8.25391 174.426 7.75 173.676 7.42188C172.949 7.07031 172.211 6.73047 171.461 6.40234C171.391 6.35547 171.262 6.30859 171.074 6.26172C170.91 6.21484 170.816 6.19141 170.793 6.19141H169.316L168.227 5.94531H166.082L164.816 6.57812C164.559 6.69531 164.336 6.76562 164.148 6.78906C163.961 6.8125 163.762 6.90625 163.551 7.07031C163.152 7.32812 162.766 7.60938 162.391 7.91406C162.016 8.19531 161.605 8.47656 161.16 8.75781C161.137 8.75781 161.113 8.76953 161.09 8.79297C161.09 8.81641 161.066 8.83984 161.02 8.86328C160.973 8.88672 160.938 8.91016 160.914 8.93359C160.914 8.98047 160.902 9.0625 160.879 9.17969C160.879 9.27344 160.867 9.37891 160.844 9.49609C160.82 9.61328 160.797 9.73047 160.773 9.84766C160.773 9.94141 160.762 10 160.738 10.0234L160.316 10.4453C160.246 10.5391 160.164 10.6797 160.07 10.8672C160 11.0312 159.918 11.207 159.824 11.3945C159.73 11.5586 159.648 11.7227 159.578 11.8867C159.531 12.0273 159.496 12.1211 159.473 12.168V13.1875C159.449 13.2344 159.414 13.3281 159.367 13.4688C159.32 13.6094 159.273 13.75 159.227 13.8906C159.18 14.0312 159.133 14.1719 159.086 14.3125C159.062 14.4297 159.051 14.5 159.051 14.5234V14.8398L159.473 16.9141C159.473 17.1719 159.402 17.3945 159.262 17.582C159.121 17.7461 159.051 17.9688 159.051 18.25C159.051 19 159.168 19.6562 159.402 20.2188C159.637 20.7578 159.801 21.3555 159.895 22.0117L160.316 25.8438L160.738 26.5117C160.762 26.5352 160.797 26.6172 160.844 26.7578C160.867 26.8281 160.891 26.8867 160.914 26.9336L162.461 28.4805Z" fill="#023C02"/>
</svg>
